<?xml version="1.0" standalone="no"?>
<!DOCTYPE svg PUBLIC "-//W3C//DTD SVG 20010904//EN"
 "http://www.w3.org/TR/2001/REC-SVG-20010904/DTD/svg10.dtd">
<svg version="1.0" xmlns="http://www.w3.org/2000/svg"
 width="500.000000pt" height="500.000000pt" viewBox="0 0 500.000000 500.000000"
 preserveAspectRatio="xMidYMid meet">

<g transform="translate(0.000000,500.000000) scale(0.100000,-0.100000)"
fill="#000000" stroke="none">
<path d="M2004 3601 c-62 -28 -97 -80 -102 -152 -4 -58 -4 -59 22 -59 24 0 26
3 26 40 0 53 21 93 63 119 89 55 197 -9 197 -116 0 -40 2 -43 26 -43 26 0 26
1 22 59 -3 45 -11 68 -32 96 -33 43 -95 75 -146 75 -19 0 -54 -9 -76 -19z"/>
<path d="M2853 3609 c-68 -20 -123 -108 -123 -193 0 -21 5 -26 25 -26 22 0 25
5 25 33 0 45 29 98 69 124 88 59 200 -10 201 -124 0 -29 3 -33 26 -33 26 0 27
1 21 50 -8 69 -34 118 -77 146 -42 28 -118 38 -167 23z"/>
<path d="M1753 3370 c-50 -20 -53 -43 -53 -405 0 -379 1 -386 70 -405 47 -13
575 -13 622 1 50 13 68 49 68 132 l0 64 -62 17 c-83 23 -133 53 -191 115 -46
49 -97 139 -97 172 0 43 55 53 71 12 25 -66 46 -101 87 -141 45 -45 131 -92
170 -92 l22 0 0 230 c0 156 -4 237 -12 255 -24 53 -41 55 -370 54 -167 0 -313
-4 -325 -9z m603 -251 c17 -19 17 -23 3 -47 -20 -37 -53 -40 -75 -8 -15 24
-15 28 0 51 20 30 47 32 72 4z"/>
<path d="M2600 3373 c-8 -3 -25 -15 -37 -26 -23 -20 -23 -24 -23 -264 0 -274
-6 -256 82 -223 69 26 148 105 182 183 19 42 31 57 46 57 33 0 40 -30 19 -85
-43 -113 -150 -209 -271 -242 l-58 -16 0 -74 c0 -65 3 -77 24 -98 13 -13 39
-26 57 -30 19 -3 166 -5 327 -3 l294 3 24 28 24 28 0 354 0 354 -24 28 -24 28
-314 2 c-172 1 -320 -1 -328 -4z m101 -243 c35 -19 15 -90 -26 -90 -20 0 -45
28 -45 50 0 20 25 50 41 50 6 0 19 -5 30 -10z"/>
<path d="M1540 2035 l0 -175 35 0 35 0 0 75 0 75 55 0 c54 0 55 0 55 30 0 30
-1 30 -55 30 l-55 0 0 45 0 45 75 0 c73 0 75 1 75 25 l0 25 -110 0 -110 0 0
-175z"/>
<path d="M1832 2078 c4 -146 14 -175 69 -204 41 -21 118 -18 157 6 50 31 62
71 62 210 l0 120 -35 0 -35 0 0 -120 c0 -115 -1 -122 -25 -145 -29 -30 -64
-32 -96 -6 -23 18 -24 27 -28 145 l-3 126 -35 0 -35 0 4 -132z"/>
<path d="M2190 2185 c0 -23 3 -25 50 -25 l50 0 0 -150 0 -150 35 0 35 0 0 150
0 150 45 0 c41 0 45 2 45 25 l0 25 -130 0 -130 0 0 -25z"/>
<path d="M2532 2070 l3 -140 32 -31 c60 -60 185 -49 226 20 14 23 17 55 17
160 l0 131 -35 0 -35 0 0 -129 c0 -123 -1 -131 -22 -145 -31 -22 -74 -20 -98
4 -18 18 -20 33 -20 145 l0 125 -36 0 -36 0 4 -140z"/>
<path d="M2910 2035 l0 -175 35 0 35 0 0 70 c0 96 21 96 73 0 37 -68 39 -70
78 -70 21 0 39 3 38 8 0 4 -17 34 -38 67 l-37 59 38 37 c52 49 53 96 4 145
-34 34 -34 34 -130 34 l-96 0 0 -175z m182 90 c9 -19 8 -29 -6 -50 -14 -21
-24 -25 -61 -25 l-45 0 0 50 0 50 50 0 c44 0 52 -3 62 -25z"/>
<path d="M3260 2035 l0 -175 106 0 105 0 -3 28 c-3 26 -5 27 -70 30 l-68 3 0
44 0 45 60 0 60 0 0 30 0 30 -60 0 -60 0 0 45 0 45 70 0 c68 0 70 1 70 25 l0
25 -105 0 -105 0 0 -175z"/>
<path d="M2989 1571 c-16 -16 -29 -36 -29 -44 0 -27 39 -63 82 -76 55 -17 68
-28 68 -57 0 -52 -75 -67 -111 -22 -9 12 -22 19 -30 16 -10 -3 -5 -14 19 -38
29 -29 38 -32 73 -27 52 7 79 31 79 72 0 38 -20 58 -75 75 -44 14 -75 37 -75
55 0 6 6 19 14 30 16 22 75 23 92 1 15 -21 45 -21 37 -1 -7 21 -56 45 -88 45
-16 0 -38 -12 -56 -29z"/>
<path d="M1870 1455 c0 -83 4 -135 10 -135 6 0 10 28 10 65 l0 65 50 0 c28 0
50 5 50 10 0 6 -22 10 -50 10 l-50 0 0 50 0 50 60 0 c33 0 60 4 60 10 0 6 -30
10 -70 10 l-70 0 0 -135z"/>
<path d="M2130 1455 c0 -113 2 -135 15 -135 13 0 15 22 15 135 0 113 -2 135
-15 135 -13 0 -15 -22 -15 -135z"/>
<path d="M2290 1455 c0 -83 4 -135 10 -135 6 0 10 43 10 110 0 61 3 110 8 110
4 0 40 -50 80 -110 39 -61 79 -110 87 -110 13 0 15 22 15 135 0 113 -2 135
-15 135 -12 0 -15 -18 -15 -105 0 -58 -3 -105 -7 -105 -5 0 -39 48 -77 105
-38 58 -75 105 -82 105 -11 0 -14 -28 -14 -135z"/>
<path d="M2630 1455 l0 -135 43 0 c58 0 112 17 144 44 21 18 27 34 31 78 8
103 -38 148 -153 148 l-65 0 0 -135z m161 86 c25 -25 29 -37 29 -81 0 -44 -4
-56 -29 -81 -25 -24 -37 -29 -80 -29 l-51 0 0 110 0 110 51 0 c43 0 55 -5 80
-29z"/>
</g>
</svg>
