<svg xmlns="http://www.w3.org/2000/svg" xmlns:xlink="http://www.w3.org/1999/xlink" width="500" zoomAndPan="magnify" viewBox="0 0 375 374.999991" height="500" preserveAspectRatio="xMidYMid meet" version="1.0"><defs><g/><clipPath id="48301319bf"><path d="M 127.398438 121 L 185 121 L 185 183.878906 L 127.398438 183.878906 Z M 127.398438 121 " clip-rule="nonzero"/></clipPath><clipPath id="f6e701b133"><path d="M 141 102.878906 L 171 102.878906 L 171 122 L 141 122 Z M 141 102.878906 " clip-rule="nonzero"/></clipPath><clipPath id="547e3206d2"><path d="M 190 121 L 247.398438 121 L 247.398438 183.878906 L 190 183.878906 Z M 190 121 " clip-rule="nonzero"/></clipPath><clipPath id="207321e47b"><path d="M 204 102.878906 L 233 102.878906 L 233 122 L 204 122 Z M 204 102.878906 " clip-rule="nonzero"/></clipPath></defs><g clip-path="url(#48301319bf)"><path fill="#3b7bf8" d="M 160.410156 142.773438 C 161.644531 142.433594 162.925781 143.152344 163.269531 144.386719 C 166.035156 154.363281 174.707031 161.570312 184.855469 162.632812 L 184.855469 128.167969 C 184.855469 124.253906 181.6875 121.078125 177.769531 121.078125 L 134.472656 121.078125 C 130.558594 121.078125 127.382812 124.253906 127.382812 128.167969 L 127.382812 176.582031 C 127.382812 180.496094 130.558594 183.667969 134.472656 183.667969 L 177.769531 183.667969 C 181.6875 183.667969 184.855469 180.496094 184.855469 176.582031 L 184.855469 167.300781 C 172.625 166.21875 162.117188 157.605469 158.792969 145.628906 C 158.453125 144.394531 159.171875 143.117188 160.410156 142.773438 Z M 174.140625 139.933594 C 175.886719 139.933594 177.296875 141.359375 177.296875 143.121094 C 177.296875 144.878906 175.886719 146.3125 174.140625 146.3125 C 172.398438 146.3125 170.980469 144.878906 170.980469 143.121094 C 170.980469 141.359375 172.398438 139.933594 174.140625 139.933594 Z M 174.140625 139.933594 " fill-opacity="1" fill-rule="nonzero"/></g><g clip-path="url(#f6e701b133)"><path fill="#3b7bf8" d="M 170.257812 121.078125 L 165.617188 121.078125 L 165.617188 117.054688 C 165.617188 111.820312 161.359375 107.558594 156.125 107.558594 C 150.890625 107.558594 146.628906 111.820312 146.628906 117.054688 L 146.628906 121.078125 L 141.992188 121.078125 L 141.992188 117.054688 C 141.992188 109.257812 148.335938 102.921875 156.125 102.921875 C 163.914062 102.921875 170.261719 109.265625 170.261719 117.054688 L 170.261719 121.078125 Z M 170.257812 121.078125 " fill-opacity="1" fill-rule="nonzero"/></g><g clip-path="url(#547e3206d2)"><path fill="#3b7bf8" d="M 240.472656 121.078125 L 197.171875 121.078125 C 193.257812 121.078125 190.085938 124.253906 190.085938 128.167969 L 190.085938 162.636719 C 200.234375 161.574219 208.90625 154.363281 211.683594 144.386719 C 212.023438 143.152344 213.300781 142.429688 214.535156 142.773438 C 215.769531 143.117188 216.496094 144.394531 216.15625 145.628906 C 212.828125 157.605469 202.316406 166.222656 190.085938 167.300781 L 190.085938 176.582031 C 190.085938 180.496094 193.257812 183.667969 197.171875 183.667969 L 240.472656 183.667969 C 244.386719 183.667969 247.5625 180.496094 247.5625 176.582031 L 247.5625 128.167969 C 247.5625 124.253906 244.386719 121.078125 240.472656 121.078125 Z M 200.804688 146.3125 C 199.058594 146.3125 197.644531 144.878906 197.644531 143.121094 C 197.644531 141.359375 199.058594 139.933594 200.804688 139.933594 C 202.550781 139.933594 203.96875 141.359375 203.96875 143.121094 C 203.96875 144.878906 202.550781 146.3125 200.804688 146.3125 Z M 200.804688 146.3125 " fill-opacity="1" fill-rule="nonzero"/></g><g clip-path="url(#207321e47b)"><path fill="#3b7bf8" d="M 232.960938 121.078125 L 228.324219 121.078125 L 228.324219 117.054688 C 228.324219 111.820312 224.0625 107.558594 218.828125 107.558594 C 213.59375 107.558594 209.335938 111.820312 209.335938 117.054688 L 209.335938 121.078125 L 204.695312 121.078125 L 204.695312 117.054688 C 204.695312 109.257812 211.039062 102.921875 218.828125 102.921875 C 226.625 102.921875 232.964844 109.265625 232.964844 117.054688 L 232.964844 121.078125 Z M 232.960938 121.078125 " fill-opacity="1" fill-rule="nonzero"/></g><g fill="#000000" fill-opacity="1"><g transform="translate(112.957805, 235.359887)"><g><path d="M 19 -26.53125 L 19 -22.234375 L 7.9375 -22.234375 L 7.9375 -15.421875 L 16.421875 -15.421875 L 16.421875 -11.203125 L 7.9375 -11.203125 L 7.9375 0 L 2.625 0 L 2.625 -26.53125 Z M 19 -26.53125 "/></g></g></g><g fill="#000000" fill-opacity="1"><g transform="translate(134.993688, 235.359887)"><g><path d="M 7.859375 -26.53125 L 7.859375 -10.109375 C 7.859375 -8.304688 8.328125 -6.929688 9.265625 -5.984375 C 10.203125 -5.035156 11.519531 -4.5625 13.21875 -4.5625 C 14.945312 -4.5625 16.28125 -5.035156 17.21875 -5.984375 C 18.15625 -6.929688 18.625 -8.304688 18.625 -10.109375 L 18.625 -26.53125 L 23.984375 -26.53125 L 23.984375 -10.140625 C 23.984375 -7.890625 23.492188 -5.984375 22.515625 -4.421875 C 21.535156 -2.867188 20.226562 -1.695312 18.59375 -0.90625 C 16.96875 -0.125 15.148438 0.265625 13.140625 0.265625 C 11.171875 0.265625 9.378906 -0.125 7.765625 -0.90625 C 6.160156 -1.695312 4.890625 -2.867188 3.953125 -4.421875 C 3.015625 -5.984375 2.546875 -7.890625 2.546875 -10.140625 L 2.546875 -26.53125 Z M 7.859375 -26.53125 "/></g></g></g><g fill="#000000" fill-opacity="1"><g transform="translate(163.374268, 235.359887)"><g><path d="M 20.671875 -26.53125 L 20.671875 -22.234375 L 13.609375 -22.234375 L 13.609375 0 L 8.28125 0 L 8.28125 -22.234375 L 1.21875 -22.234375 L 1.21875 -26.53125 Z M 20.671875 -26.53125 "/></g></g></g><g fill="#000000" fill-opacity="1"><g transform="translate(187.195784, 235.359887)"><g><path d="M 7.859375 -26.53125 L 7.859375 -10.109375 C 7.859375 -8.304688 8.328125 -6.929688 9.265625 -5.984375 C 10.203125 -5.035156 11.519531 -4.5625 13.21875 -4.5625 C 14.945312 -4.5625 16.28125 -5.035156 17.21875 -5.984375 C 18.15625 -6.929688 18.625 -8.304688 18.625 -10.109375 L 18.625 -26.53125 L 23.984375 -26.53125 L 23.984375 -10.140625 C 23.984375 -7.890625 23.492188 -5.984375 22.515625 -4.421875 C 21.535156 -2.867188 20.226562 -1.695312 18.59375 -0.90625 C 16.96875 -0.125 15.148438 0.265625 13.140625 0.265625 C 11.171875 0.265625 9.378906 -0.125 7.765625 -0.90625 C 6.160156 -1.695312 4.890625 -2.867188 3.953125 -4.421875 C 3.015625 -5.984375 2.546875 -7.890625 2.546875 -10.140625 L 2.546875 -26.53125 Z M 7.859375 -26.53125 "/></g></g></g><g fill="#000000" fill-opacity="1"><g transform="translate(215.576363, 235.359887)"><g><path d="M 16.296875 0 L 10.453125 -10.34375 L 7.9375 -10.34375 L 7.9375 0 L 2.625 0 L 2.625 -26.53125 L 12.578125 -26.53125 C 14.628906 -26.53125 16.375 -26.164062 17.8125 -25.4375 C 19.257812 -24.71875 20.34375 -23.742188 21.0625 -22.515625 C 21.789062 -21.285156 22.15625 -19.910156 22.15625 -18.390625 C 22.15625 -16.640625 21.644531 -15.0625 20.625 -13.65625 C 19.613281 -12.25 18.109375 -11.28125 16.109375 -10.75 L 22.453125 0 Z M 7.9375 -14.328125 L 12.390625 -14.328125 C 13.828125 -14.328125 14.898438 -14.675781 15.609375 -15.375 C 16.328125 -16.070312 16.6875 -17.039062 16.6875 -18.28125 C 16.6875 -19.5 16.328125 -20.441406 15.609375 -21.109375 C 14.898438 -21.773438 13.828125 -22.109375 12.390625 -22.109375 L 7.9375 -22.109375 Z M 7.9375 -14.328125 "/></g></g></g><g fill="#000000" fill-opacity="1"><g transform="translate(241.829383, 235.359887)"><g><path d="M 7.9375 -22.234375 L 7.9375 -15.578125 L 16.875 -15.578125 L 16.875 -11.359375 L 7.9375 -11.359375 L 7.9375 -4.328125 L 18.015625 -4.328125 L 18.015625 0 L 2.625 0 L 2.625 -26.5625 L 18.015625 -26.5625 L 18.015625 -22.234375 Z M 7.9375 -22.234375 "/></g></g></g><g fill="#3b7bf8" fill-opacity="1"><g transform="translate(137.308578, 276.12278)"><g><path d="M 14.125 -20.90625 L 14.125 -18.6875 L 5.046875 -18.6875 L 5.046875 -11.640625 L 12.421875 -11.640625 L 12.421875 -9.421875 L 5.046875 -9.421875 L 5.046875 0 L 2.3125 0 L 2.3125 -20.90625 Z M 14.125 -20.90625 "/></g></g></g><g fill="#3b7bf8" fill-opacity="1"><g transform="translate(156.922686, 276.12278)"><g><path d="M 5.046875 -20.90625 L 5.046875 0 L 2.3125 0 L 2.3125 -20.90625 Z M 5.046875 -20.90625 "/></g></g></g><g fill="#3b7bf8" fill-opacity="1"><g transform="translate(168.799798, 276.12278)"><g><path d="M 18.75 0 L 16.015625 0 L 5.046875 -16.65625 L 5.046875 0 L 2.3125 0 L 2.3125 -20.9375 L 5.046875 -20.9375 L 16.015625 -4.3125 L 16.015625 -20.9375 L 18.75 -20.9375 Z M 18.75 0 "/></g></g></g><g fill="#3b7bf8" fill-opacity="1"><g transform="translate(194.381588, 276.12278)"><g><path d="M 8.8125 -20.90625 C 11.09375 -20.90625 13.066406 -20.476562 14.734375 -19.625 C 16.410156 -18.78125 17.691406 -17.566406 18.578125 -15.984375 C 19.472656 -14.410156 19.921875 -12.550781 19.921875 -10.40625 C 19.921875 -8.269531 19.472656 -6.414062 18.578125 -4.84375 C 17.691406 -3.269531 16.410156 -2.066406 14.734375 -1.234375 C 13.066406 -0.410156 11.09375 0 8.8125 0 L 2.3125 0 L 2.3125 -20.90625 Z M 8.8125 -2.25 C 11.519531 -2.25 13.582031 -2.960938 15 -4.390625 C 16.414062 -5.828125 17.125 -7.832031 17.125 -10.40625 C 17.125 -13.007812 16.410156 -15.039062 14.984375 -16.5 C 13.554688 -17.957031 11.5 -18.6875 8.8125 -18.6875 L 5.046875 -18.6875 L 5.046875 -2.25 Z M 8.8125 -2.25 "/></g></g></g><g fill="#3b7bf8" fill-opacity="1"><g transform="translate(220.083323, 276.12278)"><g><path d="M 8.9375 0.203125 C 7.5625 0.203125 6.328125 -0.0390625 5.234375 -0.53125 C 4.140625 -1.019531 3.28125 -1.695312 2.65625 -2.5625 C 2.039062 -3.4375 1.722656 -4.441406 1.703125 -5.578125 L 4.625 -5.578125 C 4.71875 -4.597656 5.117188 -3.769531 5.828125 -3.09375 C 6.546875 -2.425781 7.582031 -2.09375 8.9375 -2.09375 C 10.238281 -2.09375 11.265625 -2.414062 12.015625 -3.0625 C 12.765625 -3.71875 13.140625 -4.554688 13.140625 -5.578125 C 13.140625 -6.378906 12.914062 -7.03125 12.46875 -7.53125 C 12.03125 -8.03125 11.484375 -8.410156 10.828125 -8.671875 C 10.171875 -8.929688 9.28125 -9.210938 8.15625 -9.515625 C 6.78125 -9.867188 5.675781 -10.222656 4.84375 -10.578125 C 4.007812 -10.941406 3.296875 -11.507812 2.703125 -12.28125 C 2.117188 -13.050781 1.828125 -14.085938 1.828125 -15.390625 C 1.828125 -16.523438 2.113281 -17.53125 2.6875 -18.40625 C 3.269531 -19.289062 4.085938 -19.972656 5.140625 -20.453125 C 6.191406 -20.941406 7.398438 -21.1875 8.765625 -21.1875 C 10.722656 -21.1875 12.328125 -20.691406 13.578125 -19.703125 C 14.828125 -18.722656 15.53125 -17.425781 15.6875 -15.8125 L 12.6875 -15.8125 C 12.59375 -16.613281 12.171875 -17.316406 11.421875 -17.921875 C 10.679688 -18.535156 9.703125 -18.84375 8.484375 -18.84375 C 7.347656 -18.84375 6.421875 -18.546875 5.703125 -17.953125 C 4.984375 -17.359375 4.625 -16.535156 4.625 -15.484375 C 4.625 -14.722656 4.835938 -14.101562 5.265625 -13.625 C 5.691406 -13.144531 6.21875 -12.78125 6.84375 -12.53125 C 7.476562 -12.28125 8.367188 -11.992188 9.515625 -11.671875 C 10.890625 -11.285156 11.992188 -10.90625 12.828125 -10.53125 C 13.671875 -10.164062 14.394531 -9.597656 15 -8.828125 C 15.601562 -8.066406 15.90625 -7.023438 15.90625 -5.703125 C 15.90625 -4.679688 15.632812 -3.71875 15.09375 -2.8125 C 14.550781 -1.914062 13.75 -1.1875 12.6875 -0.625 C 11.625 -0.0703125 10.375 0.203125 8.9375 0.203125 Z M 8.9375 0.203125 "/></g></g></g></svg>